<?xml version="1.0" encoding="UTF-8"?>
<svg width="192px" height="192px" viewBox="0 0 192 192" version="1.1" xmlns="http://www.w3.org/2000/svg">
    <title>Bell Icon</title>
    <g id="bell-icon" stroke="none" stroke-width="1" fill="none" fill-rule="evenodd">
        <circle id="background" fill="#2196F3" cx="96" cy="96" r="96"></circle>
        <g id="bell" transform="translate(48.000000, 40.000000)" stroke="#FFFFFF" stroke-linecap="round" stroke-linejoin="round" stroke-width="12">
            <path d="M48,112 C48,112 64,96 64,88 L64,40 C64,29 56,20 48,20 C40,20 32,29 32,40 L32,88 C32,96 48,112 48,112 Z" id="bell-shape" fill="#BBDEFB"></path>
            <path d="M88,64 C88,29 68,0 48,0 C28,0 8,29 8,64 C8,76 0,88 0,88 L96,88 C96,88 88,76 88,64 Z" id="bell-outer"></path>
            <path d="M32,112 L64,112" id="bell-bottom"></path>
        </g>
    </g>
</svg>