<?xml version="1.0" encoding="UTF-8"?>
<svg width="512px" height="512px" viewBox="0 0 512 512" version="1.1" xmlns="http://www.w3.org/2000/svg">
    <title>WarfarinTracker Icon</title>
    <g id="icon" stroke="none" stroke-width="1" fill="none" fill-rule="evenodd">
        <circle id="background" fill="#2196F3" cx="256" cy="256" r="256"></circle>
        <g id="pill" transform="translate(96.000000, 96.000000)" fill-rule="nonzero">
            <path d="M272,32.61 C239.26,0 201.19,0 168.45,32.74 L32.74,168.46 C0,201.2 0,239.27 32.74,272.01 C49.11,288.38 70.28,296.56 91.45,296.56 C112.62,296.56 133.79,288.38 150.16,272.01 L285.87,136.3 C318.61,103.56 318.61,65.35 285.87,32.61 L272,32.61 Z" id="pill-background" fill="#FFFFFF"></path>
            <path d="M272,32.61 C239.26,0 201.19,0 168.45,32.74 L91.15,110.04 C116.46,114.04 133.51,114.04 162.21,95.96 C181.91,83.13 207.86,87.65 223.03,102.82 C239.68,119.47 243.4,145.68 231.68,166.04 C217.56,196.04 224.7,212.06 228.7,239.3 L285.87,136.3 C318.61,103.56 318.61,65.35 285.87,32.61 L272,32.61 Z" id="pill-highlight" fill="#BBDEFB"></path>
            <path d="M150.16,272 C134.79,287.37 113.62,295.55 92.45,295.55 C75.97,295.55 59.49,291.28 45.58,282.85 L32.74,272 C0,239.26 0,201.19 32.74,168.45 L168.45,32.74 C183.82,17.37 204.99,9.19 226.16,9.19 C242.64,9.19 259.12,13.46 273.03,21.89 L285.87,32.74 C318.61,65.48 318.61,103.55 285.87,136.29 L150.16,272 Z M91.45,319.24 C117.19,319.24 143.07,308.91 163.72,288.26 L299.42,152.55 C340.86,111.11 340.86,57.72 299.42,16.27 C277.59,-5.09 251.9,-5.09 226.16,-5.09 C200.29,-5.09 174.41,5.24 153.76,25.89 L18.05,161.6 C-23.39,203.04 -23.39,256.43 18.05,297.88 C38.98,318.69 64.58,319.24 91.45,319.24 Z" id="pill-outline" fill="#444444"></path>
        </g>
        <g id="heart" transform="translate(256.000000, 256.000000)" fill="#E91E63">
            <path d="M103.68,19.15 C92.66,10.31 78.08,10.31 67.2,19.15 L64,21.94 L60.8,19.15 C49.92,10.31 35.34,10.31 24.32,19.15 C13.3,28.99 12.8,47.01 24.32,57.18 L64,92.16 L103.68,57.18 C115.2,47.01 114.7,28.99 103.68,19.15 Z" id="heart-shape"></path>
        </g>
    </g>
</svg>