<?xml version="1.0" encoding="UTF-8"?>
<svg width="192px" height="192px" viewBox="0 0 192 192" version="1.1" xmlns="http://www.w3.org/2000/svg">
  <circle cx="96" cy="96" r="88" fill="#2196F3" />
  <g transform="translate(48, 48)" fill="#FFFFFF">
    <path d="M88,24H72V8c0-4.4-3.6-8-8-8H32c-4.4,0-8,3.6-8,8v16H8c-4.4,0-8,3.6-8,8v56c0,4.4,3.6,8,8,8h80c4.4,0,8-3.6,8-8V32
      C96,27.6,92.4,24,88,24z M32,8h32v16H32V8z M88,88H8V32h80V88z"/>
    <rect x="40" y="48" width="16" height="8"/>
    <rect x="40" y="64" width="16" height="8"/>
    <rect x="24" y="48" width="8" height="8"/>
    <rect x="24" y="64" width="8" height="8"/>
    <rect x="64" y="48" width="8" height="8"/>
    <rect x="64" y="64" width="8" height="8"/>
  </g>
</svg>