<?xml version="1.0" encoding="UTF-8"?>
<svg width="192px" height="192px" viewBox="0 0 192 192" version="1.1" xmlns="http://www.w3.org/2000/svg">
    <title>Pill Icon</title>
    <g id="pill-icon" stroke="none" stroke-width="1" fill="none" fill-rule="evenodd">
        <circle id="background" fill="#E91E63" cx="96" cy="96" r="96"></circle>
        <g id="pill" transform="translate(48.000000, 48.000000)" fill-rule="nonzero">
            <path d="M96,0 C87.16,0 78.32,3.4 71.68,10.04 L10.04,71.68 C-3.35,85.07 -3.35,106.93 10.04,120.32 C16.68,126.96 25.52,130.36 34.36,130.36 C43.2,130.36 52.04,126.96 58.68,120.32 L120.32,58.68 C133.71,45.29 133.71,23.43 120.32,10.04 C113.68,3.4 104.84,0 96,0 Z M24,72 C39.44,72 52,84.56 52,100 C52,115.44 39.44,128 24,128 C24,128 27.04,86.44 24,72 Z" id="pill-shape" fill="#FFFFFF"></path>
            <path d="M96,12 C104.84,12 113.68,15.4 120.32,22.04 C129.44,31.16 132.08,43.88 128.24,55.28 C126.68,59.56 120.32,58.68 120.32,58.68 L58.68,120.32 C52.04,126.96 43.2,130.36 34.36,130.36 C25.52,130.36 16.68,126.96 10.04,120.32 C0.92,111.2 -1.72,98.48 2.12,87.08 C3.68,82.8 10.04,83.68 10.04,83.68 L71.68,22.04 C78.32,15.4 87.16,12 96,12 Z" id="pill-highlight" fill="#FCE4EC"></path>
        </g>
    </g>
</svg>